#!OML:ASF X:\für Bonn\!DataBase\2005_08_10_Bjorn_Final\c3d\bjorn.ASF
:FULLY-SPECIFIED
:DEGREES
31
root 18.862 19.3026 0.153305 1064.95 -84.1597 -347.319
lowerback 11.6036 4.78147 8.83275
upperback 16.6399 5.55604 -0.202205
thorax 12.9683 3.40355 -5.16794
lowerneck 1.52089 -2.53033 5.26066
upperneck 19.7342 -3.06608 -6.3798
head 5.48683 -1.67412 -3.03648
rclavicle -2.54444e-014 8.74653e-015
rhumerus -2.15394 -6.37712 -81.7385
rradius 29.5128
rwrist -5.77927
rhand -14.5519 11.6423
rfingers 7.12502
rthumb 11.5969 -18.0168
lclavicle -2.54444e-014 8.74653e-015
lhumerus -23.2261 -0.295841 87.4021
lradius 32.2669
lwrist -22.308
lhand -17.9691 -10.5511
lfingers 7.12502
lthumb 8.30018 19.2658
rfemur -12.2072 -14.6861 15.4637
rtibia 31.3781
rfoot -7.88471 19.3672
rtoes -0.2916
lfemur -19.7848 11.5263 -17.1122
ltibia 32.7032
lfoot -9.60129 0.293176
ltoes -7.50736
32
root 18.829 19.3 0.15787 1065.05 -84.4645 -347.413
lowerback 12.2211 4.8698 8.70085
upperback 16.9188 5.65714 -0.267636
thorax 12.9751 3.43487 -5.20478
lowerneck 1.59129 -2.46552 5.23379
upperneck 19.1798 -2.9826 -6.26815
head 5.30986 -1.62143 -2.97851
rclavicle -2.78299e-014 2.8625e-014
rhumerus -1.07226 -6.21505 -81.7785
rradius 29.1627
rwrist -5.71708
rhand -14.3461 11.5289
rfingers 7.12502
rthumb 11.7953 -18.119
lclavicle -2.78299e-014 2.8625e-014
lhumerus -22.726 -0.72627 87.4607
lradius 32.6857
lwrist -22.299
lhand -18.2978 -10.7999
lfingers 7.12502
lthumb 7.9829 19.0294
rfemur -12.1557 -14.759 15.5353
rtibia 31.3832
rfoot -7.84131 19.7084
rtoes -0.102548
lfemur -19.7865 11.2315 -16.8491
ltibia 32.2998
lfoot -9.27956 0.707787
ltoes -7.17097
33
root 18.7984 19.2955 0.163492 1065.22 -84.7401 -347.553
lowerback 12.8391 4.93958 8.54518
upperback 17.2158 5.72394 -0.321275
thorax 12.9958 3.44456 -5.21696
lowerneck 1.73858 -2.37318 5.09963
upperneck 18.4838 -2.86636 -6.08117
head 5.08205 -1.55391 -2.87421
rclavicle -1.82882e-014 3.18055e-014
rhumerus 0.0357335 -5.94492 -81.7741
rradius 28.8585
rwrist -5.68085
rhand -14.1278 11.3314
rfingers 7.12502
rthumb 12.0059 -18.3042
lclavicle -1.82882e-014 3.18055e-014
lhumerus -22.1893 -1.14801 87.5361
lradius 33.158
lwrist -22.2136
lhand -18.54 -11.0647
lfingers 7.12502
lthumb 7.74915 18.7733
rfemur -12.1451 -14.8614 15.5941
rtibia 31.4155
rfoot -7.7515 20.0612
rtoes 0.266545
lfemur -19.8098 10.9381 -16.6235
ltibia 31.9414
lfoot -8.9164 1.16052
ltoes -7.29306
34
root 18.7719 19.2909 0.169341 1065.85 -85.0063 -348.112
lowerback 13.4739 4.99788 8.43457
upperback 17.5096 5.77445 -0.376062
thorax 13.0117 3.45104 -5.25758
lowerneck 1.82036 -2.29036 4.93322
upperneck 17.7742 -2.76183 -5.9077
head 4.86114 -1.49513 -2.7715
rclavicle 7.15625e-015 -2.3059e-014
rhumerus 1.20788 -5.72625 -81.7755
rradius 28.5093
rwrist -5.66255
rhand -13.8899 11.1515
rfingers 7.12502
rthumb 12.2353 -18.4706
lclavicle 7.15625e-015 -2.3059e-014
lhumerus -21.6181 -1.58465 87.6049
lradius 33.6868
lwrist -22.0154
lhand -18.7253 -11.227
lfingers 7.12502
lthumb 7.5703 18.6175
rfemur -12.1998 -14.9736 15.7064
rtibia 31.4667
rfoot -7.68979 20.3875
rtoes 0.520284
lfemur -19.9073 10.7132 -16.3907
ltibia 31.6386
lfoot -8.43441 1.53847
ltoes -7.72384
35
root 18.748 19.2864 0.17621 1066.53 -85.2795 -348.644
lowerback 14.0548 5.07155 8.32779
upperback 17.8069 5.83979 -0.45245
thorax 13.0738 3.46868 -5.32047
lowerneck 1.75679 -2.21546 4.8122
upperneck 17.1378 -2.66717 -5.7811
head 4.68537 -1.44229 -2.69641
rclavicle -1.90833e-014 -2.38542e-015
rhumerus 2.41193 -5.60793 -81.8124
rradius 28.1846
rwrist -5.55949
rhand -13.6416 11
rfingers 7.12502
rthumb 12.4747 -18.6077
lclavicle -1.90833e-014 -2.38542e-015
lhumerus -20.9762 -2.12067 87.6498
lradius 34.2249
lwrist -21.7219
lhand -18.9684 -11.332
lfingers 7.12502
lthumb 7.33564 18.5208
rfemur -12.375 -15.1349 15.8226
rtibia 31.5369
rfoot -7.5349 20.7769
rtoes 0.996966
lfemur -20.0804 10.5033 -16.1905
ltibia 31.4047
lfoot -7.92844 1.91546
ltoes -8.20407
